HIERARCHY
ROOT Hips
{
	OFFSET -0.001795 -0.223333 0.028219
	CHANNELS 6 Xposition Yposition Zposition Zrotation Yrotation Xrotation 
	JOINT LeftUpLeg
	{
		OFFSET 0.069520 -0.091406 -0.006815
		CHANNELS 3 Zrotation Yrotation Xrotation
		JOINT LeftLeg
		{
			OFFSET 0.034277 -0.375199 -0.004496
			CHANNELS 3 Zrotation Yrotation Xrotation
			JOINT LeftFoot
			{
				OFFSET -0.013596 -0.397961 -0.043693
				CHANNELS 3 Zrotation Yrotation Xrotation
				JOINT LeftToe
				{
					OFFSET 0.026358 -0.055791 0.119288
					CHANNELS 3 Zrotation Yrotation Xrotation
					End Site
					{
						OFFSET 0.000000 0.000000 0.000000
					}
				}
			}
		}
	}
	JOINT RightUpLeg
	{
		OFFSET -0.067670 -0.090522 -0.004320
		CHANNELS 3 Zrotation Yrotation Xrotation
		JOINT RightLeg
		{
			OFFSET -0.038290 -0.382569 -0.008850
			CHANNELS 3 Zrotation Yrotation Xrotation
			JOINT RightFoot
			{
				OFFSET 0.015774 -0.398415 -0.042312
				CHANNELS 3 Zrotation Yrotation Xrotation
				JOINT RightToe
				{
					OFFSET -0.025372 -0.048144 0.123348
					CHANNELS 3 Zrotation Yrotation Xrotation
					End Site
					{
						OFFSET 0.000000 0.000000 0.000000
					}
				}
			}
		}
	}
	JOINT Spine
	{
		OFFSET -0.002533 0.108963 -0.026696
		CHANNELS 3 Zrotation Yrotation Xrotation
		JOINT Spine1
		{
			OFFSET 0.005487 0.135180 0.001092
			CHANNELS 3 Zrotation Yrotation Xrotation
			JOINT Spine2
			{
				OFFSET 0.001457 0.052922 0.025425
				CHANNELS 3 Zrotation Yrotation Xrotation
				JOINT Neck
				{
					OFFSET -0.002778 0.213870 -0.042857
					CHANNELS 3 Zrotation Yrotation Xrotation
					JOINT Head
					{
						OFFSET 0.005152 0.064970 0.051349
						CHANNELS 3 Zrotation Yrotation Xrotation
						End Site
						{
							OFFSET 0.000000 0.000000 0.000000
						}
					}
				}
				JOINT LeftShoulder
				{
					OFFSET 0.078845 0.121749 -0.034090
					CHANNELS 3 Zrotation Yrotation Xrotation
					JOINT LeftArm
					{
						OFFSET 0.090977 0.030469 -0.008868
						CHANNELS 3 Zrotation Yrotation Xrotation
						JOINT LeftForeArm
						{
							OFFSET 0.259612 -0.012772 -0.027456
							CHANNELS 3 Zrotation Yrotation Xrotation
							JOINT LeftHand
							{
								OFFSET 0.249234 0.008986 -0.001171
								CHANNELS 3 Zrotation Yrotation Xrotation
								End Site
								{
									OFFSET 0.000000 0.000000 0.000000
								}
							}
						}
					}
				}
				JOINT RightShoulder
				{
					OFFSET -0.081759 0.118833 -0.038615
					CHANNELS 3 Zrotation Yrotation Xrotation
					JOINT RightArm
					{
						OFFSET -0.096012 0.032551 -0.009143
						CHANNELS 3 Zrotation Yrotation Xrotation
						JOINT RightForeArm
						{
							OFFSET -0.253742 -0.013329 -0.021401
							CHANNELS 3 Zrotation Yrotation Xrotation
							JOINT RightHand
							{
								OFFSET -0.255298 0.007772 -0.005559
								CHANNELS 3 Zrotation Yrotation Xrotation
								End Site
								{
									OFFSET 0.000000 0.000000 0.000000
								}
							}
						}
					}
				}
			}
		}
	}
}
MOTION
Frames: 9
Frame Time: 0.050000
0.082862 0.933910 -0.074362 -2.114299 -3.177594 9.230111 0.156171 -1.259035 -14.737681 -1.254424 -0.135493 19.351765 9.271369 19.159198 8.225921 0.000000 0.000000 0.000000 4.638495 1.364706 -11.067327 2.794867 0.488128 28.358748 -6.023613 -10.507373 -16.019196 0.000000 0.000000 0.000000 -8.567477 0.441910 2.905032 6.426176 -0.755691 -25.804921 1.128048 1.561822 29.169195 5.163916 0.619524 -45.344144 0.000000 0.000000 0.000000 -27.723012 -1.518526 -0.655562 -56.107024 -9.674821 -4.695165 -6.556748 -52.124304 6.986585 0.000000 0.000000 0.000000 18.498518 15.366465 7.293973 60.246210 20.164161 2.015566 -16.584437 64.758730 -5.519074 0.000000 0.000000 0.000000 
0.083458 0.932019 -0.090042 -2.038492 -3.286013 9.330054 0.071279 -1.307213 -15.244057 -1.233277 -0.128877 18.388981 9.387520 19.367080 6.956387 0.000000 0.000000 0.000000 5.322918 1.189890 -9.716465 1.441113 0.960333 27.841138 -6.091649 -8.804050 -19.817664 0.000000 0.000000 0.000000 -7.907940 0.398310 2.795978 6.073940 -0.705037 -25.520726 1.072426 1.798908 29.767081 4.425793 0.887545 -45.370107 0.000000 0.000000 0.000000 -28.891148 0.667369 -2.249501 -57.664998 -3.712275 -7.643984 -8.222025 -46.511315 6.815586 0.000000 0.000000 0.000000 19.122491 12.334717 5.763523 62.799495 11.680388 -2.507798 2.814336 60.083629 5.921750 0.000000 0.000000 0.000000 
0.084335 0.931883 -0.107237 -1.699614 -3.078821 9.493235 -0.178609 -1.399046 -15.977133 -1.325247 -0.105505 17.337385 9.234072 19.118179 6.454024 0.000000 0.000000 0.000000 5.736140 1.193325 -9.643345 0.285763 1.237660 25.970964 -6.169765 -9.007076 -20.184022 0.000000 0.000000 0.000000 -7.573718 0.379827 2.877566 5.770716 -0.611415 -25.828094 0.754661 1.458751 30.409466 4.330307 0.843434 -45.064899 0.000000 0.000000 0.000000 -29.692074 2.584708 -3.541232 -59.015083 1.140697 -10.210044 -10.183663 -42.356273 6.924927 0.000000 0.000000 0.000000 20.317344 10.049995 4.516804 63.051085 4.224595 -6.621068 12.921682 53.611332 9.970978 0.000000 0.000000 0.000000 
0.085266 0.932384 -0.125200 -1.598951 -3.061910 9.260505 -0.525744 -1.469582 -16.320799 -0.875429 -0.215338 16.325039 9.167870 19.003051 6.334922 0.000000 0.000000 0.000000 6.170907 1.145943 -9.224922 -0.639031 1.419563 24.069381 -6.153319 -8.841848 -20.240577 0.000000 0.000000 0.000000 -6.713758 0.319980 3.049236 5.449633 -0.540503 -25.884078 0.349583 1.535407 30.974141 4.136583 0.837842 -44.343497 0.000000 0.000000 0.000000 -29.749382 4.082273 -4.587504 -60.330267 5.028213 -12.368997 -14.069275 -40.585452 8.082850 0.000000 0.000000 0.000000 21.312924 7.860528 3.322033 62.711785 -1.571329 -9.712807 18.236129 47.857270 10.942602 0.000000 0.000000 0.000000 
0.085990 0.932777 -0.143485 -1.211936 -2.266078 9.366705 -0.750515 -1.564568 -16.905913 -0.974255 -0.198147 14.863288 8.674590 18.173802 6.149913 0.000000 0.000000 0.000000 6.380926 1.209792 -9.564175 -1.283872 1.475642 22.698133 -6.191786 -9.565573 -20.079446 0.000000 0.000000 0.000000 -6.470695 0.300518 3.020095 5.726072 -0.592638 -25.886008 -0.147728 0.697998 31.430115 3.639648 0.926763 -43.830608 0.000000 0.000000 0.000000 -29.992662 5.411068 -5.395407 -61.592318 6.984393 -13.668579 -17.435086 -39.483017 9.188271 0.000000 0.000000 0.000000 20.569361 6.328111 2.370225 63.457214 -6.152866 -12.290947 21.299260 44.368387 11.190492 0.000000 0.000000 0.000000 
0.086473 0.933273 -0.161836 -0.815633 -1.335653 9.020090 -1.069730 -1.650364 -17.168160 -0.962312 -0.208733 13.687021 8.114901 17.231728 6.216987 0.000000 0.000000 0.000000 6.415187 1.204216 -9.470124 -1.617819 1.433154 21.375309 -6.211580 -10.332606 -19.821895 0.000000 0.000000 0.000000 -6.181022 0.277706 3.710674 5.474922 -0.508273 -26.223642 -0.057030 0.209038 31.874649 3.065580 1.117780 -43.476842 0.000000 0.000000 0.000000 -29.951083 5.780389 -5.671714 -62.549572 7.988063 -14.435465 -20.504488 -38.976908 10.241930 0.000000 0.000000 0.000000 20.454463 4.368184 1.320108 64.294689 -9.691426 -14.400694 23.497674 42.413355 11.535988 0.000000 0.000000 0.000000 
0.086894 0.933302 -0.179999 -0.626906 -0.736401 8.883855 -1.153703 -1.711150 -17.540143 -1.048716 -0.177064 12.379916 7.724240 16.585351 6.380265 0.000000 0.000000 0.000000 6.631823 1.219859 -9.482957 -2.099430 1.442282 19.853699 -6.191247 -10.725303 -19.504035 0.000000 0.000000 0.000000 -5.837062 0.252357 4.271232 5.511373 -0.488699 -26.546449 -0.212399 -0.003926 32.327082 2.755531 1.248055 -43.475343 0.000000 0.000000 0.000000 -30.112751 6.380163 -6.171453 -62.650411 8.634261 -14.820081 -23.442986 -39.228420 11.460195 0.000000 0.000000 0.000000 20.249656 3.340523 0.819752 64.692576 -12.339733 -15.963861 25.769222 41.936576 12.339691 0.000000 0.000000 0.000000 
0.087416 0.933355 -0.197573 -0.394755 -0.228224 8.367553 -1.487798 -1.781388 -17.664907 -0.870401 -0.205185 11.459601 7.375429 16.028417 6.759785 0.000000 0.000000 0.000000 6.727834 1.186001 -9.186833 -2.529821 1.451177 18.529602 -6.165424 -11.048310 -19.137204 0.000000 0.000000 0.000000 -5.330319 0.208422 5.194598 4.996935 -0.339245 -27.127642 0.151949 -0.066213 32.964457 2.522594 1.338855 -43.252453 0.000000 0.000000 0.000000 -30.244437 6.278277 -6.193698 -62.435613 8.573185 -14.806287 -25.935147 -38.998804 12.357880 0.000000 0.000000 0.000000 20.066496 2.230285 0.294957 64.708182 -13.635241 -16.733594 27.748472 41.280363 12.971925 0.000000 0.000000 0.000000 
0.088462 0.933345 -0.214421 -0.311696 0.202844 8.340711 -1.532015 -1.770886 -17.418967 -0.984603 -0.126730 9.015999 6.993309 15.433042 7.185470 0.000000 0.000000 0.000000 6.586594 1.206504 -9.339886 -2.437218 1.314914 17.083484 -6.095250 -11.165182 -18.680465 0.000000 0.000000 0.000000 -4.736383 0.158887 5.514316 4.754118 -0.276693 -27.294377 0.133633 0.058374 33.092948 2.484227 1.425888 -43.562491 0.000000 0.000000 0.000000 -30.035803 5.851711 -6.018813 -62.311569 8.156858 -14.557809 -26.934176 -39.616685 12.918627 0.000000 0.000000 0.000000 20.293302 1.736280 0.128709 64.462050 -13.673555 -16.689479 28.837160 41.616724 13.619256 0.000000 0.000000 0.000000 
